<mxfile host="app.diagrams.net" modified="2022-09-02T07:17:59.817Z" agent="5.0 (Macintosh; Intel Mac OS X 10_15_7) AppleWebKit/537.36 (KHTML, like Gecko) Chrome/104.0.0.0 Safari/537.36" etag="vsEwtPjYsGv9E5Pi6Rlv" version="20.2.8" type="github">
  <diagram id="WTPaA0G0A5PBTRPrCUoW" name="第 1 页">
    <mxGraphModel dx="839" dy="613" grid="1" gridSize="10" guides="1" tooltips="1" connect="1" arrows="1" fold="1" page="1" pageScale="1" pageWidth="827" pageHeight="1169" math="0" shadow="0">
      <root>
        <mxCell id="0" />
        <mxCell id="1" parent="0" />
        <mxCell id="GMcIKvYf6G1IHEl-Gqa1-2" value="" style="shape=umlLifeline;participant=umlActor;perimeter=lifelinePerimeter;whiteSpace=wrap;html=1;container=1;collapsible=0;recursiveResize=0;verticalAlign=top;spacingTop=36;outlineConnect=0;fillColor=#B2C9AB;strokeColor=#788AA3;fontColor=#46495D;" vertex="1" parent="1">
          <mxGeometry x="50" y="60" width="20" height="990" as="geometry" />
        </mxCell>
        <mxCell id="GMcIKvYf6G1IHEl-Gqa1-29" value="" style="html=1;points=[];perimeter=orthogonalPerimeter;fillColor=#B2C9AB;strokeColor=#788AA3;fontColor=#46495D;" vertex="1" parent="GMcIKvYf6G1IHEl-Gqa1-2">
          <mxGeometry x="5" y="70" width="10" height="920" as="geometry" />
        </mxCell>
        <mxCell id="GMcIKvYf6G1IHEl-Gqa1-4" value="Merchant &lt;br&gt;Front End&amp;nbsp;" style="shape=umlLifeline;perimeter=lifelinePerimeter;whiteSpace=wrap;html=1;container=1;collapsible=0;recursiveResize=0;outlineConnect=0;fillColor=#B2C9AB;strokeColor=#788AA3;fontColor=#46495D;" vertex="1" parent="1">
          <mxGeometry x="210" y="60" width="100" height="1000" as="geometry" />
        </mxCell>
        <mxCell id="GMcIKvYf6G1IHEl-Gqa1-30" value="" style="html=1;points=[];perimeter=orthogonalPerimeter;fillColor=#B2C9AB;strokeColor=#788AA3;fontColor=#46495D;" vertex="1" parent="GMcIKvYf6G1IHEl-Gqa1-4">
          <mxGeometry x="45" y="70" width="10" height="430" as="geometry" />
        </mxCell>
        <mxCell id="GMcIKvYf6G1IHEl-Gqa1-38" value="Load Payment Page" style="html=1;verticalAlign=bottom;endArrow=block;rounded=0;entryX=-0.5;entryY=0.067;entryDx=0;entryDy=0;entryPerimeter=0;strokeColor=#788AA3;fontColor=#46495D;" edge="1" target="GMcIKvYf6G1IHEl-Gqa1-37" parent="GMcIKvYf6G1IHEl-Gqa1-4">
          <mxGeometry relative="1" as="geometry">
            <mxPoint x="55" y="460" as="sourcePoint" />
            <mxPoint x="465" y="450" as="targetPoint" />
            <Array as="points">
              <mxPoint x="195" y="460" />
              <mxPoint x="255" y="460" />
            </Array>
          </mxGeometry>
        </mxCell>
        <mxCell id="GMcIKvYf6G1IHEl-Gqa1-41" value="OTP Entry" style="html=1;verticalAlign=bottom;endArrow=block;rounded=0;strokeColor=#788AA3;fontColor=#46495D;" edge="1" parent="GMcIKvYf6G1IHEl-Gqa1-4">
          <mxGeometry relative="1" as="geometry">
            <mxPoint x="-140" y="600" as="sourcePoint" />
            <mxPoint x="470" y="600" as="targetPoint" />
          </mxGeometry>
        </mxCell>
        <mxCell id="GMcIKvYf6G1IHEl-Gqa1-42" value="bKash Page (PIN)" style="html=1;verticalAlign=bottom;endArrow=open;dashed=1;endSize=8;exitX=0;exitY=0.95;rounded=0;strokeColor=#788AA3;fontColor=#46495D;" edge="1" parent="GMcIKvYf6G1IHEl-Gqa1-4">
          <mxGeometry relative="1" as="geometry">
            <mxPoint x="-140" y="630" as="targetPoint" />
            <mxPoint x="475.5" y="630" as="sourcePoint" />
          </mxGeometry>
        </mxCell>
        <mxCell id="GMcIKvYf6G1IHEl-Gqa1-5" value="Merchant Backend&amp;nbsp;" style="shape=umlLifeline;perimeter=lifelinePerimeter;whiteSpace=wrap;html=1;container=1;collapsible=0;recursiveResize=0;outlineConnect=0;fillColor=#B2C9AB;strokeColor=#788AA3;fontColor=#46495D;" vertex="1" parent="1">
          <mxGeometry x="410" y="60" width="100" height="990" as="geometry" />
        </mxCell>
        <mxCell id="GMcIKvYf6G1IHEl-Gqa1-14" value="" style="html=1;points=[];perimeter=orthogonalPerimeter;fillColor=#B2C9AB;strokeColor=#788AA3;fontColor=#46495D;" vertex="1" parent="GMcIKvYf6G1IHEl-Gqa1-5">
          <mxGeometry x="45" y="90" width="10" height="330" as="geometry" />
        </mxCell>
        <mxCell id="GMcIKvYf6G1IHEl-Gqa1-15" value="Init Token Manange" style="edgeStyle=orthogonalEdgeStyle;html=1;align=left;spacingLeft=2;endArrow=block;rounded=0;entryX=1;entryY=0.026;entryDx=0;entryDy=0;entryPerimeter=0;strokeColor=#788AA3;fontColor=#46495D;" edge="1" target="GMcIKvYf6G1IHEl-Gqa1-14" parent="GMcIKvYf6G1IHEl-Gqa1-5">
          <mxGeometry relative="1" as="geometry">
            <mxPoint x="45" y="120" as="sourcePoint" />
            <Array as="points">
              <mxPoint x="45" y="130" />
              <mxPoint x="75" y="130" />
              <mxPoint x="75" y="110" />
              <mxPoint x="55" y="110" />
            </Array>
          </mxGeometry>
        </mxCell>
        <mxCell id="GMcIKvYf6G1IHEl-Gqa1-40" value="bKash Page (OTP)" style="html=1;verticalAlign=bottom;endArrow=open;dashed=1;endSize=8;exitX=0;exitY=0.95;rounded=0;strokeColor=#788AA3;fontColor=#46495D;" edge="1" parent="GMcIKvYf6G1IHEl-Gqa1-5" source="GMcIKvYf6G1IHEl-Gqa1-44">
          <mxGeometry relative="1" as="geometry">
            <mxPoint x="-340" y="560" as="targetPoint" />
            <mxPoint x="275.5" y="560" as="sourcePoint" />
          </mxGeometry>
        </mxCell>
        <mxCell id="GMcIKvYf6G1IHEl-Gqa1-49" value="" style="html=1;points=[];perimeter=orthogonalPerimeter;fillColor=#B2C9AB;strokeColor=#788AA3;fontColor=#46495D;" vertex="1" parent="GMcIKvYf6G1IHEl-Gqa1-5">
          <mxGeometry x="45" y="730" width="10" height="50" as="geometry" />
        </mxCell>
        <mxCell id="GMcIKvYf6G1IHEl-Gqa1-6" value="bKash" style="shape=umlLifeline;perimeter=lifelinePerimeter;whiteSpace=wrap;html=1;container=1;collapsible=0;recursiveResize=0;outlineConnect=0;fillColor=#B2C9AB;strokeColor=#788AA3;fontColor=#46495D;" vertex="1" parent="1">
          <mxGeometry x="620" y="60" width="140" height="990" as="geometry" />
        </mxCell>
        <mxCell id="GMcIKvYf6G1IHEl-Gqa1-17" value="" style="html=1;points=[];perimeter=orthogonalPerimeter;fillColor=#B2C9AB;strokeColor=#788AA3;fontColor=#46495D;" vertex="1" parent="GMcIKvYf6G1IHEl-Gqa1-6">
          <mxGeometry x="65" y="160" width="10" height="30" as="geometry" />
        </mxCell>
        <mxCell id="GMcIKvYf6G1IHEl-Gqa1-23" value="" style="html=1;points=[];perimeter=orthogonalPerimeter;fillColor=#B2C9AB;strokeColor=#788AA3;fontColor=#46495D;" vertex="1" parent="GMcIKvYf6G1IHEl-Gqa1-6">
          <mxGeometry x="65" y="350" width="10" height="30" as="geometry" />
        </mxCell>
        <mxCell id="GMcIKvYf6G1IHEl-Gqa1-37" value="" style="html=1;points=[];perimeter=orthogonalPerimeter;fillColor=#B2C9AB;strokeColor=#788AA3;fontColor=#46495D;" vertex="1" parent="GMcIKvYf6G1IHEl-Gqa1-6">
          <mxGeometry x="65" y="460" width="10" height="30" as="geometry" />
        </mxCell>
        <mxCell id="GMcIKvYf6G1IHEl-Gqa1-44" value="" style="html=1;points=[];perimeter=orthogonalPerimeter;fillColor=#B2C9AB;strokeColor=#788AA3;fontColor=#46495D;" vertex="1" parent="GMcIKvYf6G1IHEl-Gqa1-6">
          <mxGeometry x="65" y="524.5" width="10" height="40" as="geometry" />
        </mxCell>
        <mxCell id="GMcIKvYf6G1IHEl-Gqa1-46" value="" style="html=1;points=[];perimeter=orthogonalPerimeter;fillColor=#B2C9AB;strokeColor=#788AA3;fontColor=#46495D;" vertex="1" parent="GMcIKvYf6G1IHEl-Gqa1-6">
          <mxGeometry x="65" y="590" width="10" height="40" as="geometry" />
        </mxCell>
        <mxCell id="GMcIKvYf6G1IHEl-Gqa1-47" value="" style="html=1;points=[];perimeter=orthogonalPerimeter;fillColor=#B2C9AB;strokeColor=#788AA3;fontColor=#46495D;" vertex="1" parent="GMcIKvYf6G1IHEl-Gqa1-6">
          <mxGeometry x="65" y="660" width="10" height="40" as="geometry" />
        </mxCell>
        <mxCell id="GMcIKvYf6G1IHEl-Gqa1-61" value="" style="html=1;points=[];perimeter=orthogonalPerimeter;fillColor=#B2C9AB;strokeColor=#788AA3;fontColor=#46495D;" vertex="1" parent="GMcIKvYf6G1IHEl-Gqa1-6">
          <mxGeometry x="65" y="736" width="10" height="34" as="geometry" />
        </mxCell>
        <mxCell id="GMcIKvYf6G1IHEl-Gqa1-10" value="click &quot;payment with bKash&quot;" style="html=1;verticalAlign=bottom;endArrow=block;rounded=0;strokeColor=#788AA3;fontColor=#46495D;" edge="1" parent="1" source="GMcIKvYf6G1IHEl-Gqa1-2" target="GMcIKvYf6G1IHEl-Gqa1-4">
          <mxGeometry width="80" relative="1" as="geometry">
            <mxPoint x="130" y="150" as="sourcePoint" />
            <mxPoint x="210" y="150" as="targetPoint" />
            <Array as="points">
              <mxPoint x="140" y="130" />
              <mxPoint x="190" y="130" />
            </Array>
          </mxGeometry>
        </mxCell>
        <mxCell id="GMcIKvYf6G1IHEl-Gqa1-11" value="applyPay" style="html=1;verticalAlign=bottom;endArrow=block;rounded=0;strokeColor=#788AA3;fontColor=#46495D;" edge="1" parent="1" source="GMcIKvYf6G1IHEl-Gqa1-4" target="GMcIKvYf6G1IHEl-Gqa1-5">
          <mxGeometry width="80" relative="1" as="geometry">
            <mxPoint x="280" y="150" as="sourcePoint" />
            <mxPoint x="450" y="150" as="targetPoint" />
            <Array as="points">
              <mxPoint x="400.5" y="150" />
            </Array>
          </mxGeometry>
        </mxCell>
        <mxCell id="GMcIKvYf6G1IHEl-Gqa1-18" value="Grant Token" style="html=1;verticalAlign=bottom;endArrow=block;rounded=0;strokeColor=#788AA3;fontColor=#46495D;" edge="1" parent="1">
          <mxGeometry relative="1" as="geometry">
            <mxPoint x="470" y="220" as="sourcePoint" />
            <mxPoint x="680" y="220" as="targetPoint" />
          </mxGeometry>
        </mxCell>
        <mxCell id="GMcIKvYf6G1IHEl-Gqa1-19" value="id_token" style="html=1;verticalAlign=bottom;endArrow=open;dashed=1;endSize=8;rounded=0;strokeColor=#788AA3;fontColor=#46495D;" edge="1" parent="1">
          <mxGeometry relative="1" as="geometry">
            <mxPoint x="470" y="248" as="targetPoint" />
            <mxPoint x="680" y="250" as="sourcePoint" />
            <Array as="points">
              <mxPoint x="580" y="248" />
            </Array>
          </mxGeometry>
        </mxCell>
        <mxCell id="GMcIKvYf6G1IHEl-Gqa1-8" value="loop" style="shape=umlFrame;whiteSpace=wrap;html=1;width=40;height=20;fillColor=#B2C9AB;strokeColor=#788AA3;fontColor=#46495D;" vertex="1" parent="1">
          <mxGeometry x="380" y="280" width="400" height="80" as="geometry" />
        </mxCell>
        <mxCell id="GMcIKvYf6G1IHEl-Gqa1-20" value="" style="html=1;points=[];perimeter=orthogonalPerimeter;fillColor=#B2C9AB;strokeColor=#788AA3;fontColor=#46495D;" vertex="1" parent="1">
          <mxGeometry x="685" y="300" width="10" height="50" as="geometry" />
        </mxCell>
        <mxCell id="GMcIKvYf6G1IHEl-Gqa1-21" value="Refrensh Token" style="html=1;verticalAlign=bottom;endArrow=block;entryX=0.5;entryY=0.013;rounded=0;entryDx=0;entryDy=0;entryPerimeter=0;strokeColor=#788AA3;fontColor=#46495D;" edge="1" target="GMcIKvYf6G1IHEl-Gqa1-20" parent="1">
          <mxGeometry relative="1" as="geometry">
            <mxPoint x="470" y="300" as="sourcePoint" />
          </mxGeometry>
        </mxCell>
        <mxCell id="GMcIKvYf6G1IHEl-Gqa1-22" value="id_token" style="html=1;verticalAlign=bottom;endArrow=open;dashed=1;endSize=8;rounded=0;strokeColor=#788AA3;fontColor=#46495D;" edge="1" parent="1">
          <mxGeometry relative="1" as="geometry">
            <mxPoint x="470" y="340" as="targetPoint" />
            <mxPoint x="680" y="340" as="sourcePoint" />
            <Array as="points">
              <mxPoint x="480" y="340" />
            </Array>
          </mxGeometry>
        </mxCell>
        <mxCell id="GMcIKvYf6G1IHEl-Gqa1-24" value="Create Payment" style="html=1;verticalAlign=bottom;endArrow=block;entryX=0;entryY=0;rounded=0;strokeColor=#788AA3;fontColor=#46495D;" edge="1" target="GMcIKvYf6G1IHEl-Gqa1-23" parent="1">
          <mxGeometry relative="1" as="geometry">
            <mxPoint x="470" y="410" as="sourcePoint" />
          </mxGeometry>
        </mxCell>
        <mxCell id="GMcIKvYf6G1IHEl-Gqa1-25" value="API Respnse" style="html=1;verticalAlign=bottom;endArrow=open;dashed=1;endSize=8;rounded=0;strokeColor=#788AA3;fontColor=#46495D;" edge="1" parent="1">
          <mxGeometry relative="1" as="geometry">
            <mxPoint x="465" y="441" as="targetPoint" />
            <mxPoint x="695" y="440" as="sourcePoint" />
            <Array as="points">
              <mxPoint x="585" y="441" />
            </Array>
          </mxGeometry>
        </mxCell>
        <mxCell id="GMcIKvYf6G1IHEl-Gqa1-27" value="redirect_url" style="html=1;verticalAlign=bottom;endArrow=open;dashed=1;endSize=8;rounded=0;strokeColor=#788AA3;fontColor=#46495D;" edge="1" parent="1">
          <mxGeometry relative="1" as="geometry">
            <mxPoint x="270" y="480" as="targetPoint" />
            <mxPoint x="450" y="480" as="sourcePoint" />
          </mxGeometry>
        </mxCell>
        <mxCell id="GMcIKvYf6G1IHEl-Gqa1-32" value="Wallet Number Entry" style="html=1;verticalAlign=bottom;endArrow=block;entryX=-0.4;entryY=0.013;rounded=0;entryDx=0;entryDy=0;entryPerimeter=0;strokeColor=#788AA3;fontColor=#46495D;" edge="1" target="GMcIKvYf6G1IHEl-Gqa1-44" parent="1">
          <mxGeometry relative="1" as="geometry">
            <mxPoint x="70" y="585" as="sourcePoint" />
            <mxPoint x="685" y="585" as="targetPoint" />
          </mxGeometry>
        </mxCell>
        <mxCell id="GMcIKvYf6G1IHEl-Gqa1-39" value="bKash Page (Wallet Number)" style="html=1;verticalAlign=bottom;endArrow=open;dashed=1;endSize=8;exitX=0;exitY=0.95;rounded=0;strokeColor=#788AA3;fontColor=#46495D;" edge="1" source="GMcIKvYf6G1IHEl-Gqa1-37" parent="1">
          <mxGeometry relative="1" as="geometry">
            <mxPoint x="70" y="549" as="targetPoint" />
          </mxGeometry>
        </mxCell>
        <mxCell id="GMcIKvYf6G1IHEl-Gqa1-43" value="PIN Entry" style="html=1;verticalAlign=bottom;endArrow=block;rounded=0;strokeColor=#788AA3;fontColor=#46495D;" edge="1" parent="1">
          <mxGeometry relative="1" as="geometry">
            <mxPoint x="70" y="720" as="sourcePoint" />
            <mxPoint x="680" y="720" as="targetPoint" />
          </mxGeometry>
        </mxCell>
        <mxCell id="GMcIKvYf6G1IHEl-Gqa1-48" value="Validation Response" style="html=1;verticalAlign=bottom;endArrow=open;dashed=1;endSize=8;exitX=0;exitY=0.95;rounded=0;strokeColor=#788AA3;fontColor=#46495D;" edge="1" parent="1">
          <mxGeometry relative="1" as="geometry">
            <mxPoint x="260" y="760" as="targetPoint" />
            <mxPoint x="695.5" y="760" as="sourcePoint" />
          </mxGeometry>
        </mxCell>
        <mxCell id="GMcIKvYf6G1IHEl-Gqa1-50" value="Assert Consulting" style="html=1;verticalAlign=bottom;endArrow=block;rounded=0;strokeColor=#788AA3;fontColor=#46495D;" edge="1" parent="1" source="GMcIKvYf6G1IHEl-Gqa1-4">
          <mxGeometry relative="1" as="geometry">
            <mxPoint x="611" y="790" as="sourcePoint" />
            <mxPoint x="460" y="790" as="targetPoint" />
          </mxGeometry>
        </mxCell>
        <mxCell id="GMcIKvYf6G1IHEl-Gqa1-51" value="API Response" style="html=1;verticalAlign=bottom;endArrow=open;dashed=1;endSize=8;exitX=0;exitY=0.95;rounded=0;strokeColor=#788AA3;fontColor=#46495D;" edge="1" source="GMcIKvYf6G1IHEl-Gqa1-49" parent="1" target="GMcIKvYf6G1IHEl-Gqa1-4">
          <mxGeometry relative="1" as="geometry">
            <mxPoint x="611" y="866" as="targetPoint" />
          </mxGeometry>
        </mxCell>
        <mxCell id="GMcIKvYf6G1IHEl-Gqa1-53" value="Alt" style="shape=umlFrame;whiteSpace=wrap;html=1;fillColor=#B2C9AB;strokeColor=#788AA3;fontColor=#46495D;" vertex="1" parent="1">
          <mxGeometry x="90" y="820" width="320" height="200" as="geometry" />
        </mxCell>
        <mxCell id="GMcIKvYf6G1IHEl-Gqa1-54" value="Pay Failed" style="html=1;verticalAlign=bottom;endArrow=open;dashed=1;endSize=8;rounded=0;strokeColor=#788AA3;fontColor=#46495D;" edge="1" parent="1">
          <mxGeometry relative="1" as="geometry">
            <mxPoint x="250" y="900" as="sourcePoint" />
            <mxPoint x="70" y="900" as="targetPoint" />
          </mxGeometry>
        </mxCell>
        <mxCell id="GMcIKvYf6G1IHEl-Gqa1-55" value="respCode ！= “0000”" style="text;strokeColor=none;fillColor=none;align=left;verticalAlign=top;spacingLeft=4;spacingRight=4;overflow=hidden;rotatable=0;points=[[0,0.5],[1,0.5]];portConstraint=eastwest;fontColor=#46495D;" vertex="1" parent="1">
          <mxGeometry x="90" y="850" width="120" height="26" as="geometry" />
        </mxCell>
        <mxCell id="GMcIKvYf6G1IHEl-Gqa1-56" value="Loop" style="shape=umlFrame;whiteSpace=wrap;html=1;fillColor=#B2C9AB;strokeColor=#788AA3;fontColor=#46495D;" vertex="1" parent="1">
          <mxGeometry x="180" y="910" width="570" height="110" as="geometry" />
        </mxCell>
        <mxCell id="GMcIKvYf6G1IHEl-Gqa1-57" value="" style="html=1;points=[];perimeter=orthogonalPerimeter;fillColor=#B2C9AB;strokeColor=#788AA3;fontColor=#46495D;" vertex="1" parent="1">
          <mxGeometry x="455" y="920" width="10" height="60" as="geometry" />
        </mxCell>
        <mxCell id="GMcIKvYf6G1IHEl-Gqa1-58" value="Query Pay" style="html=1;verticalAlign=bottom;endArrow=block;rounded=0;strokeColor=#788AA3;fontColor=#46495D;" edge="1" parent="1">
          <mxGeometry relative="1" as="geometry">
            <mxPoint x="260" y="940" as="sourcePoint" />
            <mxPoint x="450" y="940" as="targetPoint" />
          </mxGeometry>
        </mxCell>
        <mxCell id="GMcIKvYf6G1IHEl-Gqa1-59" value="return" style="html=1;verticalAlign=bottom;endArrow=open;dashed=1;endSize=8;exitX=0;exitY=0.95;rounded=0;strokeColor=#788AA3;fontColor=#46495D;" edge="1" source="GMcIKvYf6G1IHEl-Gqa1-57" parent="1">
          <mxGeometry relative="1" as="geometry">
            <mxPoint x="260" y="980" as="targetPoint" />
            <Array as="points" />
          </mxGeometry>
        </mxCell>
        <mxCell id="GMcIKvYf6G1IHEl-Gqa1-63" value="API Response" style="html=1;verticalAlign=bottom;endArrow=open;dashed=1;endSize=8;exitX=0;exitY=0.95;rounded=0;entryX=1.4;entryY=0.74;entryDx=0;entryDy=0;entryPerimeter=0;strokeColor=#788AA3;fontColor=#46495D;" edge="1" source="GMcIKvYf6G1IHEl-Gqa1-61" parent="1" target="GMcIKvYf6G1IHEl-Gqa1-49">
          <mxGeometry relative="1" as="geometry">
            <mxPoint x="615" y="872" as="targetPoint" />
          </mxGeometry>
        </mxCell>
        <mxCell id="GMcIKvYf6G1IHEl-Gqa1-62" value="Execute Payment" style="html=1;verticalAlign=bottom;endArrow=block;entryX=0;entryY=0;rounded=0;strokeColor=#788AA3;fontColor=#46495D;" edge="1" target="GMcIKvYf6G1IHEl-Gqa1-61" parent="1">
          <mxGeometry relative="1" as="geometry">
            <mxPoint x="470" y="796" as="sourcePoint" />
          </mxGeometry>
        </mxCell>
        <mxCell id="GMcIKvYf6G1IHEl-Gqa1-64" value="" style="html=1;points=[];perimeter=orthogonalPerimeter;fillColor=#B2C9AB;strokeColor=#788AA3;fontColor=#46495D;" vertex="1" parent="1">
          <mxGeometry x="685" y="940" width="10" height="20" as="geometry" />
        </mxCell>
        <mxCell id="GMcIKvYf6G1IHEl-Gqa1-65" value="Query Payment" style="html=1;verticalAlign=bottom;endArrow=block;entryX=0;entryY=0;rounded=0;exitX=0.9;exitY=0.325;exitDx=0;exitDy=0;exitPerimeter=0;strokeColor=#788AA3;fontColor=#46495D;" edge="1" target="GMcIKvYf6G1IHEl-Gqa1-64" parent="1" source="GMcIKvYf6G1IHEl-Gqa1-57">
          <mxGeometry relative="1" as="geometry">
            <mxPoint x="615" y="920" as="sourcePoint" />
          </mxGeometry>
        </mxCell>
        <mxCell id="GMcIKvYf6G1IHEl-Gqa1-66" value="return" style="html=1;verticalAlign=bottom;endArrow=open;dashed=1;endSize=8;exitX=0;exitY=0.95;rounded=0;strokeColor=#788AA3;fontColor=#46495D;" edge="1" source="GMcIKvYf6G1IHEl-Gqa1-64" parent="1">
          <mxGeometry relative="1" as="geometry">
            <mxPoint x="460" y="960" as="targetPoint" />
          </mxGeometry>
        </mxCell>
        <mxCell id="GMcIKvYf6G1IHEl-Gqa1-67" value="Pay Result" style="html=1;verticalAlign=bottom;endArrow=open;dashed=1;endSize=8;rounded=0;exitX=0.14;exitY=0.909;exitDx=0;exitDy=0;exitPerimeter=0;strokeColor=#788AA3;fontColor=#46495D;" edge="1" parent="1" source="GMcIKvYf6G1IHEl-Gqa1-56">
          <mxGeometry relative="1" as="geometry">
            <mxPoint x="220" y="1130" as="sourcePoint" />
            <mxPoint x="70" y="1010" as="targetPoint" />
          </mxGeometry>
        </mxCell>
        <mxCell id="GMcIKvYf6G1IHEl-Gqa1-68" value="Customer" style="text;align=center;fontStyle=1;verticalAlign=middle;spacingLeft=3;spacingRight=3;strokeColor=none;rotatable=0;points=[[0,0.5],[1,0.5]];portConstraint=eastwest;fontColor=#46495D;" vertex="1" parent="1">
          <mxGeometry x="30" y="20" width="80" height="26" as="geometry" />
        </mxCell>
      </root>
    </mxGraphModel>
  </diagram>
</mxfile>
